<mxfile host="app.diagrams.net" modified="2021-03-29T23:13:02.122Z" agent="5.0 (Macintosh; Intel Mac OS X 10_13_6) AppleWebKit/537.36 (KHTML, like Gecko) Chrome/88.0.4324.192 Safari/537.36 OPR/74.0.3911.218" etag="pyKC0Vvdn8H1QiifgPKg" version="14.5.1" type="github" pages="2">
  <diagram id="kgpKYQtTHZ0yAKxKKP6v" name="Page-1">
    <mxGraphModel dx="1372" dy="763" grid="1" gridSize="10" guides="1" tooltips="1" connect="1" arrows="1" fold="1" page="1" pageScale="1" pageWidth="850" pageHeight="1100" math="0" shadow="0">
      <root>
        <mxCell id="0" />
        <mxCell id="1" parent="0" />
        <mxCell id="3nuBFxr9cyL0pnOWT2aG-7" value="returnCupon()" style="verticalAlign=bottom;endArrow=open;dashed=1;endSize=8;exitX=-0.152;exitY=0.985;shadow=0;strokeWidth=1;exitDx=0;exitDy=0;exitPerimeter=0;" parent="1" source="2R39ltGWzeSs4JhXjA6q-25" target="2R39ltGWzeSs4JhXjA6q-15" edge="1">
          <mxGeometry relative="1" as="geometry">
            <mxPoint x="190" y="179" as="targetPoint" />
            <mxPoint x="345" y="179" as="sourcePoint" />
          </mxGeometry>
        </mxCell>
        <mxCell id="3nuBFxr9cyL0pnOWT2aG-8" value="1:onClickBtnHire()" style="verticalAlign=bottom;endArrow=block;entryX=0;entryY=0.011;shadow=0;strokeWidth=1;entryDx=0;entryDy=0;entryPerimeter=0;fontSize=9;" parent="1" source="2R39ltGWzeSs4JhXjA6q-1" edge="1">
          <mxGeometry relative="1" as="geometry">
            <mxPoint x="275" y="160" as="sourcePoint" />
            <mxPoint x="180" y="160.54999999999995" as="targetPoint" />
          </mxGeometry>
        </mxCell>
        <mxCell id="2R39ltGWzeSs4JhXjA6q-1" value="" style="shape=umlLifeline;participant=umlActor;perimeter=lifelinePerimeter;whiteSpace=wrap;html=1;container=1;collapsible=0;recursiveResize=0;verticalAlign=top;spacingTop=36;outlineConnect=0;" vertex="1" parent="1">
          <mxGeometry x="40" y="80" width="20" height="300" as="geometry" />
        </mxCell>
        <mxCell id="2R39ltGWzeSs4JhXjA6q-24" value="" style="points=[];perimeter=orthogonalPerimeter;rounded=0;shadow=0;strokeWidth=1;" vertex="1" parent="2R39ltGWzeSs4JhXjA6q-1">
          <mxGeometry x="5" y="80" width="10" height="30" as="geometry" />
        </mxCell>
        <mxCell id="2R39ltGWzeSs4JhXjA6q-10" value=":MovieCollection" style="shape=umlLifeline;perimeter=lifelinePerimeter;container=1;collapsible=0;recursiveResize=0;rounded=0;shadow=0;strokeWidth=1;" vertex="1" parent="1">
          <mxGeometry x="440" y="80" width="100" height="300" as="geometry" />
        </mxCell>
        <mxCell id="9OgYv_cV8kC7q-Cjv74S-30" value="" style="points=[];perimeter=orthogonalPerimeter;rounded=0;shadow=0;strokeWidth=1;" vertex="1" parent="2R39ltGWzeSs4JhXjA6q-10">
          <mxGeometry x="45" y="150" width="10" height="40" as="geometry" />
        </mxCell>
        <mxCell id="9OgYv_cV8kC7q-Cjv74S-54" value="" style="points=[];perimeter=orthogonalPerimeter;rounded=0;shadow=0;strokeWidth=1;" vertex="1" parent="2R39ltGWzeSs4JhXjA6q-10">
          <mxGeometry x="50" y="170" width="10" height="20" as="geometry" />
        </mxCell>
        <mxCell id="2R39ltGWzeSs4JhXjA6q-12" value=":Confirm Cart" style="shape=umlLifeline;perimeter=lifelinePerimeter;container=1;collapsible=0;recursiveResize=0;rounded=0;shadow=0;strokeWidth=1;" vertex="1" parent="1">
          <mxGeometry x="561" y="80" width="100" height="300" as="geometry" />
        </mxCell>
        <mxCell id="2R39ltGWzeSs4JhXjA6q-13" value="" style="points=[];perimeter=orthogonalPerimeter;rounded=0;shadow=0;strokeWidth=1;" vertex="1" parent="2R39ltGWzeSs4JhXjA6q-12">
          <mxGeometry x="45" y="150" width="10" height="40" as="geometry" />
        </mxCell>
        <mxCell id="2R39ltGWzeSs4JhXjA6q-15" value=":System_interface" style="shape=umlLifeline;participant=umlBoundary;perimeter=lifelinePerimeter;whiteSpace=wrap;html=1;container=1;collapsible=0;recursiveResize=0;verticalAlign=top;spacingTop=36;outlineConnect=0;" vertex="1" parent="1">
          <mxGeometry x="160" y="80" width="50" height="300" as="geometry" />
        </mxCell>
        <mxCell id="2R39ltGWzeSs4JhXjA6q-16" value="" style="points=[];perimeter=orthogonalPerimeter;rounded=0;shadow=0;strokeWidth=1;" vertex="1" parent="1">
          <mxGeometry x="180" y="160" width="10" height="150" as="geometry" />
        </mxCell>
        <mxCell id="2R39ltGWzeSs4JhXjA6q-20" value="" style="shape=umlLifeline;participant=umlControl;perimeter=lifelinePerimeter;whiteSpace=wrap;html=1;container=1;collapsible=0;recursiveResize=0;verticalAlign=top;spacingTop=36;outlineConnect=0;" vertex="1" parent="1">
          <mxGeometry x="318" y="80" width="40" height="300" as="geometry" />
        </mxCell>
        <mxCell id="9OgYv_cV8kC7q-Cjv74S-37" value="" style="points=[];perimeter=orthogonalPerimeter;rounded=0;shadow=0;strokeWidth=1;" vertex="1" parent="2R39ltGWzeSs4JhXjA6q-20">
          <mxGeometry x="15" y="200" width="10" height="60" as="geometry" />
        </mxCell>
        <mxCell id="2R39ltGWzeSs4JhXjA6q-25" value="" style="html=1;points=[];perimeter=orthogonalPerimeter;" vertex="1" parent="2R39ltGWzeSs4JhXjA6q-20">
          <mxGeometry x="15" y="80" width="10" height="30" as="geometry" />
        </mxCell>
        <mxCell id="2R39ltGWzeSs4JhXjA6q-23" value=":Controller_System" style="text;html=1;strokeColor=none;fillColor=none;align=center;verticalAlign=middle;whiteSpace=wrap;rounded=0;" vertex="1" parent="1">
          <mxGeometry x="290" y="122" width="96" height="20" as="geometry" />
        </mxCell>
        <mxCell id="9OgYv_cV8kC7q-Cjv74S-4" value="1.1:firstHiring()" style="html=1;verticalAlign=bottom;endArrow=block;fontSize=9;exitX=1.271;exitY=0.005;exitDx=0;exitDy=0;exitPerimeter=0;entryX=-0.105;entryY=0.02;entryDx=0;entryDy=0;entryPerimeter=0;" edge="1" parent="1" source="2R39ltGWzeSs4JhXjA6q-16" target="2R39ltGWzeSs4JhXjA6q-25">
          <mxGeometry width="80" relative="1" as="geometry">
            <mxPoint x="340" y="170" as="sourcePoint" />
            <mxPoint x="420" y="170" as="targetPoint" />
          </mxGeometry>
        </mxCell>
        <mxCell id="9OgYv_cV8kC7q-Cjv74S-12" value="2:SelectAvalableMovie()" style="html=1;verticalAlign=bottom;endArrow=block;fontSize=9;exitX=0.95;exitY=0.037;exitDx=0;exitDy=0;exitPerimeter=0;" edge="1" target="2R39ltGWzeSs4JhXjA6q-15" parent="1">
          <mxGeometry relative="1" as="geometry">
            <mxPoint x="54.500000000000114" y="231.48000000000002" as="sourcePoint" />
          </mxGeometry>
        </mxCell>
        <mxCell id="9OgYv_cV8kC7q-Cjv74S-13" value="return: no cupon" style="html=1;verticalAlign=bottom;endArrow=block;endSize=8;fontSize=9;endFill=1;" edge="1" parent="1">
          <mxGeometry relative="1" as="geometry">
            <mxPoint x="184.81034482758628" y="309.0000000000001" as="targetPoint" />
            <mxPoint x="332" y="309" as="sourcePoint" />
          </mxGeometry>
        </mxCell>
        <mxCell id="9OgYv_cV8kC7q-Cjv74S-14" value=":Credicard" style="shape=umlLifeline;perimeter=lifelinePerimeter;container=1;collapsible=0;recursiveResize=0;rounded=0;shadow=0;strokeWidth=1;" vertex="1" parent="1">
          <mxGeometry x="680" y="80" width="100" height="300" as="geometry" />
        </mxCell>
        <mxCell id="9OgYv_cV8kC7q-Cjv74S-15" value="" style="points=[];perimeter=orthogonalPerimeter;rounded=0;shadow=0;strokeWidth=1;" vertex="1" parent="9OgYv_cV8kC7q-Cjv74S-14">
          <mxGeometry x="45" y="200" width="10" height="30" as="geometry" />
        </mxCell>
        <mxCell id="9OgYv_cV8kC7q-Cjv74S-35" value="" style="html=1;points=[];perimeter=orthogonalPerimeter;" vertex="1" parent="9OgYv_cV8kC7q-Cjv74S-14">
          <mxGeometry x="45" y="150" width="10" height="40" as="geometry" />
        </mxCell>
        <mxCell id="9OgYv_cV8kC7q-Cjv74S-56" value="" style="points=[];perimeter=orthogonalPerimeter;rounded=0;shadow=0;strokeWidth=1;" vertex="1" parent="9OgYv_cV8kC7q-Cjv74S-14">
          <mxGeometry x="50" y="170" width="10" height="20" as="geometry" />
        </mxCell>
        <mxCell id="9OgYv_cV8kC7q-Cjv74S-16" value=":Payment" style="shape=umlLifeline;perimeter=lifelinePerimeter;container=1;collapsible=0;recursiveResize=0;rounded=0;shadow=0;strokeWidth=1;" vertex="1" parent="1">
          <mxGeometry x="800" y="80" width="100" height="300" as="geometry" />
        </mxCell>
        <mxCell id="9OgYv_cV8kC7q-Cjv74S-17" value="" style="points=[];perimeter=orthogonalPerimeter;rounded=0;shadow=0;strokeWidth=1;" vertex="1" parent="9OgYv_cV8kC7q-Cjv74S-16">
          <mxGeometry x="45" y="150" width="10" height="20" as="geometry" />
        </mxCell>
        <mxCell id="9OgYv_cV8kC7q-Cjv74S-18" value=":MovieSent" style="shape=umlLifeline;perimeter=lifelinePerimeter;container=1;collapsible=0;recursiveResize=0;rounded=0;shadow=0;strokeWidth=1;" vertex="1" parent="1">
          <mxGeometry x="922" y="80" width="100" height="300" as="geometry" />
        </mxCell>
        <mxCell id="9OgYv_cV8kC7q-Cjv74S-19" value="" style="points=[];perimeter=orthogonalPerimeter;rounded=0;shadow=0;strokeWidth=1;" vertex="1" parent="9OgYv_cV8kC7q-Cjv74S-18">
          <mxGeometry x="45" y="150" width="10" height="20" as="geometry" />
        </mxCell>
        <mxCell id="9OgYv_cV8kC7q-Cjv74S-20" value=":Email" style="shape=umlLifeline;perimeter=lifelinePerimeter;container=1;collapsible=0;recursiveResize=0;rounded=0;shadow=0;strokeWidth=1;" vertex="1" parent="1">
          <mxGeometry x="1060" y="210" width="100" height="170" as="geometry" />
        </mxCell>
        <mxCell id="9OgYv_cV8kC7q-Cjv74S-21" value="" style="points=[];perimeter=orthogonalPerimeter;rounded=0;shadow=0;strokeWidth=1;" vertex="1" parent="9OgYv_cV8kC7q-Cjv74S-20">
          <mxGeometry x="45" y="50" width="10" height="80" as="geometry" />
        </mxCell>
        <mxCell id="9OgYv_cV8kC7q-Cjv74S-27" value="&lt;span style=&quot;font-size: 11px&quot;&gt;returnCupon()&lt;/span&gt;" style="html=1;verticalAlign=bottom;endArrow=open;dashed=1;endSize=8;fontSize=9;exitX=0.09;exitY=0.208;exitDx=0;exitDy=0;exitPerimeter=0;entryX=1.107;entryY=0.972;entryDx=0;entryDy=0;entryPerimeter=0;" edge="1" parent="1" source="2R39ltGWzeSs4JhXjA6q-16" target="2R39ltGWzeSs4JhXjA6q-24">
          <mxGeometry relative="1" as="geometry">
            <mxPoint x="500" y="300" as="sourcePoint" />
            <mxPoint x="55.000000000000114" y="267.80000000000007" as="targetPoint" />
          </mxGeometry>
        </mxCell>
        <mxCell id="9OgYv_cV8kC7q-Cjv74S-29" value="" style="points=[];perimeter=orthogonalPerimeter;rounded=0;shadow=0;strokeWidth=1;" vertex="1" parent="1">
          <mxGeometry x="180" y="270" width="10" as="geometry" />
        </mxCell>
        <mxCell id="9OgYv_cV8kC7q-Cjv74S-31" value="makeMovieList()" style="html=1;verticalAlign=bottom;endArrow=block;fontSize=9;entryX=0.117;entryY=0.075;entryDx=0;entryDy=0;entryPerimeter=0;" edge="1" parent="1" source="2R39ltGWzeSs4JhXjA6q-15" target="9OgYv_cV8kC7q-Cjv74S-30">
          <mxGeometry width="80" relative="1" as="geometry">
            <mxPoint x="460" y="290" as="sourcePoint" />
            <mxPoint x="540" y="290" as="targetPoint" />
          </mxGeometry>
        </mxCell>
        <mxCell id="9OgYv_cV8kC7q-Cjv74S-33" value="confirmCollection()" style="html=1;verticalAlign=bottom;endArrow=block;fontSize=9;" edge="1" parent="1" source="2R39ltGWzeSs4JhXjA6q-10">
          <mxGeometry width="80" relative="1" as="geometry">
            <mxPoint x="560" y="230" as="sourcePoint" />
            <mxPoint x="620" y="230" as="targetPoint" />
          </mxGeometry>
        </mxCell>
        <mxCell id="9OgYv_cV8kC7q-Cjv74S-34" value="insertCard()" style="html=1;verticalAlign=bottom;endArrow=block;fontSize=9;" edge="1" parent="1" target="9OgYv_cV8kC7q-Cjv74S-14">
          <mxGeometry width="80" relative="1" as="geometry">
            <mxPoint x="620" y="230" as="sourcePoint" />
            <mxPoint x="640" y="230" as="targetPoint" />
          </mxGeometry>
        </mxCell>
        <mxCell id="9OgYv_cV8kC7q-Cjv74S-36" value="checkCredicard()" style="html=1;verticalAlign=bottom;endArrow=block;fontSize=9;exitX=0.86;exitY=0.01;exitDx=0;exitDy=0;exitPerimeter=0;" edge="1" parent="1" source="9OgYv_cV8kC7q-Cjv74S-37" target="9OgYv_cV8kC7q-Cjv74S-14">
          <mxGeometry width="80" relative="1" as="geometry">
            <mxPoint x="520" y="250" as="sourcePoint" />
            <mxPoint x="600" y="250" as="targetPoint" />
          </mxGeometry>
        </mxCell>
        <mxCell id="9OgYv_cV8kC7q-Cjv74S-39" value="makePayment()" style="html=1;verticalAlign=bottom;endArrow=block;fontSize=9;" edge="1" parent="1" source="9OgYv_cV8kC7q-Cjv74S-14" target="9OgYv_cV8kC7q-Cjv74S-16">
          <mxGeometry width="80" relative="1" as="geometry">
            <mxPoint x="770" y="230" as="sourcePoint" />
            <mxPoint x="760" y="230" as="targetPoint" />
          </mxGeometry>
        </mxCell>
        <mxCell id="9OgYv_cV8kC7q-Cjv74S-40" value="getMovie(s)" style="html=1;verticalAlign=bottom;endArrow=block;fontSize=9;entryX=0.08;entryY=-0.03;entryDx=0;entryDy=0;entryPerimeter=0;exitX=1.12;exitY=0.05;exitDx=0;exitDy=0;exitPerimeter=0;" edge="1" parent="1" source="9OgYv_cV8kC7q-Cjv74S-17" target="9OgYv_cV8kC7q-Cjv74S-19">
          <mxGeometry width="80" relative="1" as="geometry">
            <mxPoint x="820" y="220" as="sourcePoint" />
            <mxPoint x="900" y="220" as="targetPoint" />
          </mxGeometry>
        </mxCell>
        <mxCell id="9OgYv_cV8kC7q-Cjv74S-41" value="" style="html=1;points=[];perimeter=orthogonalPerimeter;fontSize=9;" vertex="1" parent="1">
          <mxGeometry x="45" y="230" width="10" height="80" as="geometry" />
        </mxCell>
        <mxCell id="9OgYv_cV8kC7q-Cjv74S-42" value="return: no cupon" style="html=1;verticalAlign=bottom;endArrow=block;endSize=8;exitX=-0.117;exitY=0.985;fontSize=9;exitDx=0;exitDy=0;exitPerimeter=0;entryX=0.762;entryY=0.981;entryDx=0;entryDy=0;entryPerimeter=0;endFill=1;" edge="1" parent="1" source="2R39ltGWzeSs4JhXjA6q-16" target="9OgYv_cV8kC7q-Cjv74S-41">
          <mxGeometry relative="1" as="geometry">
            <mxPoint x="194.81034482758628" y="319.15999999999997" as="targetPoint" />
            <mxPoint x="343.30999999999995" y="319.15999999999997" as="sourcePoint" />
          </mxGeometry>
        </mxCell>
        <mxCell id="9OgYv_cV8kC7q-Cjv74S-43" value="sendEmail()" style="html=1;verticalAlign=bottom;endArrow=block;fontSize=9;entryX=-0.019;entryY=0.059;entryDx=0;entryDy=0;entryPerimeter=0;" edge="1" parent="1" source="9OgYv_cV8kC7q-Cjv74S-18" target="9OgYv_cV8kC7q-Cjv74S-20">
          <mxGeometry width="80" relative="1" as="geometry">
            <mxPoint x="740" y="320" as="sourcePoint" />
            <mxPoint x="820" y="320" as="targetPoint" />
          </mxGeometry>
        </mxCell>
        <mxCell id="9OgYv_cV8kC7q-Cjv74S-44" value="sendEmail()" style="html=1;verticalAlign=bottom;endArrow=block;fontSize=9;entryX=0.04;entryY=0.488;entryDx=0;entryDy=0;entryPerimeter=0;" edge="1" parent="1" source="9OgYv_cV8kC7q-Cjv74S-15" target="9OgYv_cV8kC7q-Cjv74S-21">
          <mxGeometry width="80" relative="1" as="geometry">
            <mxPoint x="670" y="320" as="sourcePoint" />
            <mxPoint x="750" y="320" as="targetPoint" />
          </mxGeometry>
        </mxCell>
        <mxCell id="9OgYv_cV8kC7q-Cjv74S-45" value="sendEmail()" style="html=1;verticalAlign=bottom;endArrow=block;fontSize=9;exitX=0.997;exitY=1.026;exitDx=0;exitDy=0;exitPerimeter=0;entryX=0.072;entryY=1.026;entryDx=0;entryDy=0;entryPerimeter=0;" edge="1" parent="1" source="9OgYv_cV8kC7q-Cjv74S-37" target="9OgYv_cV8kC7q-Cjv74S-21">
          <mxGeometry width="80" relative="1" as="geometry">
            <mxPoint x="650" y="300" as="sourcePoint" />
            <mxPoint x="730" y="300" as="targetPoint" />
          </mxGeometry>
        </mxCell>
        <mxCell id="9OgYv_cV8kC7q-Cjv74S-46" value="" style="shape=umlLifeline;participant=umlActor;perimeter=lifelinePerimeter;whiteSpace=wrap;html=1;container=1;collapsible=0;recursiveResize=0;verticalAlign=top;spacingTop=36;outlineConnect=0;" vertex="1" parent="1">
          <mxGeometry x="40" y="420" width="20" height="220" as="geometry" />
        </mxCell>
        <mxCell id="9OgYv_cV8kC7q-Cjv74S-49" value="&lt;font style=&quot;font-size: 10px&quot;&gt;:System_interface&lt;/font&gt;" style="shape=umlLifeline;participant=umlBoundary;perimeter=lifelinePerimeter;whiteSpace=wrap;html=1;container=1;collapsible=0;recursiveResize=0;verticalAlign=top;spacingTop=36;outlineConnect=0;" vertex="1" parent="1">
          <mxGeometry x="160" y="420" width="50" height="220" as="geometry" />
        </mxCell>
        <mxCell id="9OgYv_cV8kC7q-Cjv74S-60" value="" style="html=1;points=[];perimeter=orthogonalPerimeter;fontSize=9;" vertex="1" parent="9OgYv_cV8kC7q-Cjv74S-49">
          <mxGeometry x="20" y="90" width="10" height="40" as="geometry" />
        </mxCell>
        <mxCell id="9OgYv_cV8kC7q-Cjv74S-53" value="" style="html=1;points=[];perimeter=orthogonalPerimeter;" vertex="1" parent="1">
          <mxGeometry x="340" y="280" width="10" height="30" as="geometry" />
        </mxCell>
        <mxCell id="9OgYv_cV8kC7q-Cjv74S-38" value="return:true" style="html=1;verticalAlign=bottom;endArrow=open;dashed=1;endSize=8;fontSize=9;exitX=0.21;exitY=0.995;exitDx=0;exitDy=0;exitPerimeter=0;" edge="1" parent="1" source="9OgYv_cV8kC7q-Cjv74S-15" target="2R39ltGWzeSs4JhXjA6q-20">
          <mxGeometry relative="1" as="geometry">
            <mxPoint x="690" y="189" as="sourcePoint" />
            <mxPoint x="520" y="250" as="targetPoint" />
          </mxGeometry>
        </mxCell>
        <mxCell id="9OgYv_cV8kC7q-Cjv74S-55" value="confirmCollection(cupon)" style="html=1;verticalAlign=bottom;endArrow=block;fontSize=9;entryX=-0.051;entryY=0.505;entryDx=0;entryDy=0;entryPerimeter=0;" edge="1" parent="1" source="2R39ltGWzeSs4JhXjA6q-10" target="2R39ltGWzeSs4JhXjA6q-13">
          <mxGeometry width="80" relative="1" as="geometry">
            <mxPoint x="490.26744186046517" y="230" as="sourcePoint" />
            <mxPoint x="620" y="230" as="targetPoint" />
            <Array as="points">
              <mxPoint x="560" y="250" />
            </Array>
          </mxGeometry>
        </mxCell>
        <mxCell id="9OgYv_cV8kC7q-Cjv74S-57" value="getMovies(2)" style="html=1;verticalAlign=bottom;endArrow=block;fontSize=9;exitX=0.98;exitY=0.07;exitDx=0;exitDy=0;exitPerimeter=0;" edge="1" parent="1" source="9OgYv_cV8kC7q-Cjv74S-56" target="9OgYv_cV8kC7q-Cjv74S-18">
          <mxGeometry x="0.3367" y="1" width="80" relative="1" as="geometry">
            <mxPoint x="790" y="270" as="sourcePoint" />
            <mxPoint x="870" y="270" as="targetPoint" />
            <mxPoint as="offset" />
          </mxGeometry>
        </mxCell>
        <mxCell id="9OgYv_cV8kC7q-Cjv74S-59" value="setCard()" style="html=1;verticalAlign=bottom;endArrow=block;fontSize=9;exitX=1;exitY=0.515;exitDx=0;exitDy=0;exitPerimeter=0;" edge="1" parent="1" source="2R39ltGWzeSs4JhXjA6q-13">
          <mxGeometry width="80" relative="1" as="geometry">
            <mxPoint x="640" y="250" as="sourcePoint" />
            <mxPoint x="729.5" y="250" as="targetPoint" />
          </mxGeometry>
        </mxCell>
        <mxCell id="9OgYv_cV8kC7q-Cjv74S-61" value="1:onClickReturn()" style="html=1;verticalAlign=bottom;endArrow=block;entryX=0;entryY=0;fontSize=9;exitX=1.072;exitY=0.017;exitDx=0;exitDy=0;exitPerimeter=0;" edge="1" target="9OgYv_cV8kC7q-Cjv74S-60" parent="1" source="9OgYv_cV8kC7q-Cjv74S-7">
          <mxGeometry relative="1" as="geometry">
            <mxPoint x="-25" y="620" as="sourcePoint" />
          </mxGeometry>
        </mxCell>
        <mxCell id="9OgYv_cV8kC7q-Cjv74S-7" value="" style="html=1;points=[];perimeter=orthogonalPerimeter;fontSize=9;" vertex="1" parent="1">
          <mxGeometry x="45" y="510" width="10" height="110" as="geometry" />
        </mxCell>
        <mxCell id="9OgYv_cV8kC7q-Cjv74S-62" value="return" style="html=1;verticalAlign=bottom;endArrow=open;dashed=1;endSize=8;exitX=0;exitY=0.95;fontSize=9;" edge="1" source="9OgYv_cV8kC7q-Cjv74S-60" parent="1">
          <mxGeometry relative="1" as="geometry">
            <mxPoint x="60" y="548" as="targetPoint" />
          </mxGeometry>
        </mxCell>
        <mxCell id="9OgYv_cV8kC7q-Cjv74S-70" value="" style="shape=umlLifeline;participant=umlControl;perimeter=lifelinePerimeter;whiteSpace=wrap;html=1;container=1;collapsible=0;recursiveResize=0;verticalAlign=top;spacingTop=36;outlineConnect=0;" vertex="1" parent="1">
          <mxGeometry x="478" y="420" width="40" height="220" as="geometry" />
        </mxCell>
        <mxCell id="9OgYv_cV8kC7q-Cjv74S-71" value="" style="html=1;points=[];perimeter=orthogonalPerimeter;" vertex="1" parent="9OgYv_cV8kC7q-Cjv74S-70">
          <mxGeometry x="15" y="90" width="10" height="70" as="geometry" />
        </mxCell>
        <mxCell id="9OgYv_cV8kC7q-Cjv74S-73" value="&lt;font style=&quot;font-size: 10px&quot;&gt;:Controller_System&lt;/font&gt;" style="text;html=1;strokeColor=none;fillColor=none;align=center;verticalAlign=middle;whiteSpace=wrap;rounded=0;" vertex="1" parent="1">
          <mxGeometry x="450" y="460" width="96" height="20" as="geometry" />
        </mxCell>
        <mxCell id="9OgYv_cV8kC7q-Cjv74S-76" value=":Payment" style="shape=umlLifeline;perimeter=lifelinePerimeter;container=1;collapsible=0;recursiveResize=0;rounded=0;shadow=0;strokeWidth=1;" vertex="1" parent="1">
          <mxGeometry x="800" y="420" width="100" height="220" as="geometry" />
        </mxCell>
        <mxCell id="9OgYv_cV8kC7q-Cjv74S-77" value="" style="points=[];perimeter=orthogonalPerimeter;rounded=0;shadow=0;strokeWidth=1;" vertex="1" parent="9OgYv_cV8kC7q-Cjv74S-76">
          <mxGeometry x="45" y="90" width="10" height="40" as="geometry" />
        </mxCell>
        <mxCell id="9OgYv_cV8kC7q-Cjv74S-78" value=":BascketCollector" style="shape=umlLifeline;perimeter=lifelinePerimeter;container=1;collapsible=0;recursiveResize=0;rounded=0;shadow=0;strokeWidth=1;" vertex="1" parent="1">
          <mxGeometry x="260" y="420" width="100" height="220" as="geometry" />
        </mxCell>
        <mxCell id="9OgYv_cV8kC7q-Cjv74S-79" value="" style="points=[];perimeter=orthogonalPerimeter;rounded=0;shadow=0;strokeWidth=1;" vertex="1" parent="9OgYv_cV8kC7q-Cjv74S-78">
          <mxGeometry x="45" y="90" width="10" height="20" as="geometry" />
        </mxCell>
        <mxCell id="9OgYv_cV8kC7q-Cjv74S-80" value=":getMoviesBack()" style="html=1;verticalAlign=bottom;endArrow=block;fontSize=9;exitX=1.4;exitY=0.024;exitDx=0;exitDy=0;exitPerimeter=0;" edge="1" parent="1" source="9OgYv_cV8kC7q-Cjv74S-60">
          <mxGeometry width="80" relative="1" as="geometry">
            <mxPoint x="360" y="590" as="sourcePoint" />
            <mxPoint x="309.5000000000002" y="510.96000000000015" as="targetPoint" />
          </mxGeometry>
        </mxCell>
        <mxCell id="9OgYv_cV8kC7q-Cjv74S-81" value=":ConfirmMoviesBack()" style="html=1;verticalAlign=bottom;endArrow=block;fontSize=9;exitX=1.038;exitY=0.006;exitDx=0;exitDy=0;exitPerimeter=0;" edge="1" parent="1" source="9OgYv_cV8kC7q-Cjv74S-79" target="9OgYv_cV8kC7q-Cjv74S-70">
          <mxGeometry width="80" relative="1" as="geometry">
            <mxPoint x="400" y="570" as="sourcePoint" />
            <mxPoint x="480" y="570" as="targetPoint" />
          </mxGeometry>
        </mxCell>
        <mxCell id="9OgYv_cV8kC7q-Cjv74S-82" value="return" style="html=1;verticalAlign=bottom;endArrow=open;dashed=1;endSize=8;exitX=0.031;exitY=0.562;fontSize=9;exitDx=0;exitDy=0;exitPerimeter=0;entryX=1.233;entryY=0.983;entryDx=0;entryDy=0;entryPerimeter=0;" edge="1" parent="1" source="9OgYv_cV8kC7q-Cjv74S-71" target="9OgYv_cV8kC7q-Cjv74S-60">
          <mxGeometry relative="1" as="geometry">
            <mxPoint x="191.79999999999995" y="541.2" as="targetPoint" />
            <mxPoint x="493.30999999999995" y="539.14" as="sourcePoint" />
          </mxGeometry>
        </mxCell>
        <mxCell id="9OgYv_cV8kC7q-Cjv74S-83" value=":Credicard" style="shape=umlLifeline;perimeter=lifelinePerimeter;container=1;collapsible=0;recursiveResize=0;rounded=0;shadow=0;strokeWidth=1;" vertex="1" parent="1">
          <mxGeometry x="680" y="420" width="100" height="220" as="geometry" />
        </mxCell>
        <mxCell id="9OgYv_cV8kC7q-Cjv74S-85" value="" style="html=1;points=[];perimeter=orthogonalPerimeter;" vertex="1" parent="9OgYv_cV8kC7q-Cjv74S-83">
          <mxGeometry x="45" y="115" width="10" height="75" as="geometry" />
        </mxCell>
        <mxCell id="9OgYv_cV8kC7q-Cjv74S-87" value="setFine()" style="html=1;verticalAlign=bottom;endArrow=block;fontSize=9;exitX=1.133;exitY=0.576;exitDx=0;exitDy=0;exitPerimeter=0;" edge="1" parent="1" source="9OgYv_cV8kC7q-Cjv74S-71">
          <mxGeometry x="0.2447" width="80" relative="1" as="geometry">
            <mxPoint x="501.3299999999999" y="527.34" as="sourcePoint" />
            <mxPoint x="724" y="550" as="targetPoint" />
            <mxPoint as="offset" />
          </mxGeometry>
        </mxCell>
        <mxCell id="9OgYv_cV8kC7q-Cjv74S-88" value="makePayment()" style="html=1;verticalAlign=bottom;endArrow=block;fontSize=9;" edge="1" parent="1" source="9OgYv_cV8kC7q-Cjv74S-85" target="9OgYv_cV8kC7q-Cjv74S-76">
          <mxGeometry width="80" relative="1" as="geometry">
            <mxPoint x="745" y="309.03999999999996" as="sourcePoint" />
            <mxPoint x="1115.4" y="309.03999999999996" as="targetPoint" />
          </mxGeometry>
        </mxCell>
        <mxCell id="9OgYv_cV8kC7q-Cjv74S-89" value=":Email" style="shape=umlLifeline;perimeter=lifelinePerimeter;container=1;collapsible=0;recursiveResize=0;rounded=0;shadow=0;strokeWidth=1;" vertex="1" parent="1">
          <mxGeometry x="920" y="420" width="100" height="220" as="geometry" />
        </mxCell>
        <mxCell id="9OgYv_cV8kC7q-Cjv74S-90" value="" style="points=[];perimeter=orthogonalPerimeter;rounded=0;shadow=0;strokeWidth=1;" vertex="1" parent="9OgYv_cV8kC7q-Cjv74S-89">
          <mxGeometry x="45" y="90" width="10" height="40" as="geometry" />
        </mxCell>
        <mxCell id="9OgYv_cV8kC7q-Cjv74S-91" style="edgeStyle=orthogonalEdgeStyle;rounded=0;orthogonalLoop=1;jettySize=auto;html=1;startArrow=none;startFill=0;endArrow=block;endFill=1;fontSize=9;entryX=-0.133;entryY=0.533;entryDx=0;entryDy=0;entryPerimeter=0;" edge="1" parent="1" source="9OgYv_cV8kC7q-Cjv74S-77" target="9OgYv_cV8kC7q-Cjv74S-90">
          <mxGeometry relative="1" as="geometry">
            <Array as="points">
              <mxPoint x="964" y="531" />
            </Array>
          </mxGeometry>
        </mxCell>
        <mxCell id="9OgYv_cV8kC7q-Cjv74S-92" value="sendEmail()" style="edgeLabel;html=1;align=center;verticalAlign=middle;resizable=0;points=[];fontSize=9;" vertex="1" connectable="0" parent="9OgYv_cV8kC7q-Cjv74S-91">
          <mxGeometry x="-0.0843" y="1" relative="1" as="geometry">
            <mxPoint y="-9" as="offset" />
          </mxGeometry>
        </mxCell>
        <mxCell id="9OgYv_cV8kC7q-Cjv74S-93" value=":Movies" style="shape=umlLifeline;perimeter=lifelinePerimeter;container=1;collapsible=0;recursiveResize=0;rounded=0;shadow=0;strokeWidth=1;" vertex="1" parent="1">
          <mxGeometry x="560" y="420" width="100" height="220" as="geometry" />
        </mxCell>
        <mxCell id="9OgYv_cV8kC7q-Cjv74S-94" value="" style="html=1;points=[];perimeter=orthogonalPerimeter;" vertex="1" parent="9OgYv_cV8kC7q-Cjv74S-93">
          <mxGeometry x="45" y="90" width="10" height="30" as="geometry" />
        </mxCell>
        <mxCell id="9OgYv_cV8kC7q-Cjv74S-95" value="return" style="html=1;verticalAlign=bottom;endArrow=open;dashed=1;endSize=8;fontSize=9;exitX=0.072;exitY=0.934;exitDx=0;exitDy=0;exitPerimeter=0;entryX=1.107;entryY=0.858;entryDx=0;entryDy=0;entryPerimeter=0;" edge="1" parent="1" source="9OgYv_cV8kC7q-Cjv74S-85" target="9OgYv_cV8kC7q-Cjv74S-7">
          <mxGeometry relative="1" as="geometry">
            <mxPoint x="470" y="530" as="sourcePoint" />
            <mxPoint x="390" y="530" as="targetPoint" />
          </mxGeometry>
        </mxCell>
      </root>
    </mxGraphModel>
  </diagram>
  <diagram id="n7bLBUu4oKJ7Fsb_n60B" name="Page-2">
    <mxGraphModel dx="784" dy="436" grid="1" gridSize="10" guides="1" tooltips="1" connect="1" arrows="1" fold="1" page="1" pageScale="1" pageWidth="1100" pageHeight="850" math="0" shadow="0">
      <root>
        <mxCell id="rdNLKxUeWmusQo9a9lWO-0" />
        <mxCell id="rdNLKxUeWmusQo9a9lWO-1" parent="rdNLKxUeWmusQo9a9lWO-0" />
        <mxCell id="E0Ltbmq4JsSQH8HV2QDR-0" value="" style="shape=umlDestroy;whiteSpace=wrap;html=1;strokeWidth=3;" vertex="1" parent="rdNLKxUeWmusQo9a9lWO-1">
          <mxGeometry x="390" y="470" width="20" height="20" as="geometry" />
        </mxCell>
        <mxCell id="E0Ltbmq4JsSQH8HV2QDR-1" value="Obj1: Class 1" style="shape=umlLifeline;perimeter=lifelinePerimeter;whiteSpace=wrap;html=1;container=1;collapsible=0;recursiveResize=0;outlineConnect=0;" vertex="1" parent="rdNLKxUeWmusQo9a9lWO-1">
          <mxGeometry x="160" y="200" width="140" height="328" as="geometry" />
        </mxCell>
        <mxCell id="E0Ltbmq4JsSQH8HV2QDR-2" value="" style="html=1;points=[];perimeter=orthogonalPerimeter;" vertex="1" parent="E0Ltbmq4JsSQH8HV2QDR-1">
          <mxGeometry x="65" y="90" width="10" height="210" as="geometry" />
        </mxCell>
        <mxCell id="E0Ltbmq4JsSQH8HV2QDR-16" value="" style="endArrow=open;endFill=1;endSize=12;html=1;" edge="1" parent="E0Ltbmq4JsSQH8HV2QDR-1">
          <mxGeometry width="160" relative="1" as="geometry">
            <mxPoint x="130" y="60" as="sourcePoint" />
            <mxPoint x="140" y="90" as="targetPoint" />
          </mxGeometry>
        </mxCell>
        <mxCell id="E0Ltbmq4JsSQH8HV2QDR-17" value="create" style="text;html=1;strokeColor=none;fillColor=none;align=center;verticalAlign=middle;whiteSpace=wrap;rounded=0;fontSize=9;" vertex="1" parent="E0Ltbmq4JsSQH8HV2QDR-1">
          <mxGeometry x="110" y="44" width="40" height="20" as="geometry" />
        </mxCell>
        <mxCell id="E0Ltbmq4JsSQH8HV2QDR-19" value="" style="endArrow=block;startArrow=none;endFill=1;startFill=0;html=1;" edge="1" parent="E0Ltbmq4JsSQH8HV2QDR-1">
          <mxGeometry width="160" relative="1" as="geometry">
            <mxPoint x="74" y="160" as="sourcePoint" />
            <mxPoint x="230" y="160" as="targetPoint" />
          </mxGeometry>
        </mxCell>
        <mxCell id="E0Ltbmq4JsSQH8HV2QDR-3" value="Creating and Destroying an Object" style="text;align=center;fontStyle=1;verticalAlign=middle;spacingLeft=3;spacingRight=3;strokeColor=none;rotatable=0;points=[[0,0.5],[1,0.5]];portConstraint=eastwest;" vertex="1" parent="rdNLKxUeWmusQo9a9lWO-1">
          <mxGeometry x="120" y="140" width="200" height="26" as="geometry" />
        </mxCell>
        <mxCell id="E0Ltbmq4JsSQH8HV2QDR-4" value="Return" style="text;align=center;fontStyle=1;verticalAlign=middle;spacingLeft=3;spacingRight=3;strokeColor=none;rotatable=0;points=[[0,0.5],[1,0.5]];portConstraint=eastwest;" vertex="1" parent="rdNLKxUeWmusQo9a9lWO-1">
          <mxGeometry x="910" y="150" width="60" height="26" as="geometry" />
        </mxCell>
        <mxCell id="E0Ltbmq4JsSQH8HV2QDR-5" value="" style="html=1;points=[];perimeter=orthogonalPerimeter;" vertex="1" parent="rdNLKxUeWmusQo9a9lWO-1">
          <mxGeometry x="935" y="240" width="10" height="40" as="geometry" />
        </mxCell>
        <mxCell id="E0Ltbmq4JsSQH8HV2QDR-6" value="self call" style="edgeStyle=orthogonalEdgeStyle;html=1;align=left;spacingLeft=2;endArrow=block;rounded=0;entryX=1;entryY=0;" edge="1" target="E0Ltbmq4JsSQH8HV2QDR-5" parent="rdNLKxUeWmusQo9a9lWO-1">
          <mxGeometry relative="1" as="geometry">
            <mxPoint x="940" y="220" as="sourcePoint" />
            <Array as="points">
              <mxPoint x="970" y="220" />
            </Array>
          </mxGeometry>
        </mxCell>
        <mxCell id="E0Ltbmq4JsSQH8HV2QDR-10" value="Obj1: Class 1" style="shape=umlLifeline;perimeter=lifelinePerimeter;whiteSpace=wrap;html=1;container=1;collapsible=0;recursiveResize=0;outlineConnect=0;" vertex="1" parent="rdNLKxUeWmusQo9a9lWO-1">
          <mxGeometry x="350" y="270" width="100" height="200" as="geometry" />
        </mxCell>
        <mxCell id="E0Ltbmq4JsSQH8HV2QDR-11" value="" style="html=1;points=[];perimeter=orthogonalPerimeter;" vertex="1" parent="E0Ltbmq4JsSQH8HV2QDR-10">
          <mxGeometry x="45" y="90" width="10" height="30" as="geometry" />
        </mxCell>
        <mxCell id="E0Ltbmq4JsSQH8HV2QDR-12" value="" style="html=1;points=[];perimeter=orthogonalPerimeter;" vertex="1" parent="E0Ltbmq4JsSQH8HV2QDR-10">
          <mxGeometry x="45" y="150" width="10" height="30" as="geometry" />
        </mxCell>
        <mxCell id="E0Ltbmq4JsSQH8HV2QDR-13" value="" style="endArrow=open;endSize=12;dashed=1;html=1;exitX=1.3;exitY=0.025;exitDx=0;exitDy=0;exitPerimeter=0;" edge="1" parent="rdNLKxUeWmusQo9a9lWO-1" source="E0Ltbmq4JsSQH8HV2QDR-2">
          <mxGeometry width="160" relative="1" as="geometry">
            <mxPoint x="40" y="420" as="sourcePoint" />
            <mxPoint x="350" y="292" as="targetPoint" />
          </mxGeometry>
        </mxCell>
        <mxCell id="E0Ltbmq4JsSQH8HV2QDR-14" value="Obj1: Class 1" style="shape=umlLifeline;perimeter=lifelinePerimeter;whiteSpace=wrap;html=1;container=1;collapsible=0;recursiveResize=0;outlineConnect=0;" vertex="1" parent="rdNLKxUeWmusQo9a9lWO-1">
          <mxGeometry x="550" y="200" width="100" height="328" as="geometry" />
        </mxCell>
        <mxCell id="E0Ltbmq4JsSQH8HV2QDR-15" value="" style="html=1;points=[];perimeter=orthogonalPerimeter;" vertex="1" parent="E0Ltbmq4JsSQH8HV2QDR-14">
          <mxGeometry x="45" y="90" width="10" height="80" as="geometry" />
        </mxCell>
        <mxCell id="E0Ltbmq4JsSQH8HV2QDR-21" value="" style="endArrow=block;startArrow=none;endFill=1;startFill=0;html=1;exitX=0.986;exitY=0.63;exitDx=0;exitDy=0;exitPerimeter=0;entryX=0.043;entryY=0.019;entryDx=0;entryDy=0;entryPerimeter=0;" edge="1" parent="rdNLKxUeWmusQo9a9lWO-1" source="E0Ltbmq4JsSQH8HV2QDR-2" target="E0Ltbmq4JsSQH8HV2QDR-12">
          <mxGeometry width="160" relative="1" as="geometry">
            <mxPoint x="243.71000000000004" y="369.93000000000006" as="sourcePoint" />
            <mxPoint x="400" y="370" as="targetPoint" />
          </mxGeometry>
        </mxCell>
        <mxCell id="E0Ltbmq4JsSQH8HV2QDR-22" value="" style="endArrow=open;endFill=1;endSize=12;html=1;exitX=1;exitY=1;exitDx=0;exitDy=0;" edge="1" parent="rdNLKxUeWmusQo9a9lWO-1" source="E0Ltbmq4JsSQH8HV2QDR-23" target="E0Ltbmq4JsSQH8HV2QDR-0">
          <mxGeometry width="160" relative="1" as="geometry">
            <mxPoint x="360" y="450" as="sourcePoint" />
            <mxPoint x="370" y="480" as="targetPoint" />
          </mxGeometry>
        </mxCell>
        <mxCell id="E0Ltbmq4JsSQH8HV2QDR-23" value="destroy" style="text;html=1;strokeColor=none;fillColor=none;align=center;verticalAlign=middle;whiteSpace=wrap;rounded=0;fontSize=9;" vertex="1" parent="rdNLKxUeWmusQo9a9lWO-1">
          <mxGeometry x="300" y="440" width="40" height="20" as="geometry" />
        </mxCell>
      </root>
    </mxGraphModel>
  </diagram>
</mxfile>
